# xmcd
#
# Track frame offsets:
#	150
#	10245
#	19172
#	29651
#	43969
#	55443
#	67510
#	82189
#	96609
#	110440
#	127492
#	139593
#	149957
#	167195
#	178682
#	185901
#	197886
#	208449
#	217232
#	226505
#	238184
#	251920
#	266834
#	276444
#	285444
#	292262
#
# Disc length: 4048 seconds
#
# Revision: 1
# Processed by: cddbd v1.5.1PL0 Copyright (c) Steve Scherf et al.
# Submitted via: audiograbber 1.83.01
#
DISCID=c20fce1a
DTITLE=Dick Curless - A Tombstune every Mile  CD2
DYEAR=1900
DGENRE=
TTITLE0=I am a Pilgrim
TTITLE1=Tuck me to sleep in my old Kentucky home
TTITLE2=I ain't got nobody
TTITLE3=Rainbow in my Heart
TTITLE4=Something's wrong with you
TTITLE5=Evil hearted man Blues
TTITLE6=I dreamed of a Hillbilly Heaven
TTITLE7=Deck of Cards
TTITLE8=A Tombstone every Miles
TTITLE9=Streets of Laredo  2
TTITLE10=King of the Road
TTITLE11=Uncle Tom
TTITLE12=China Nights  4
TTITLE13=Six times Day
TTITLE14=Cupid's Arrow  2
TTITLE15=Down by the old River
TTITLE16=Teardrops in my Heart
TTITLE17=Sunny Side of the Mountain
TTITLE18=Tater raisin' man
TTITLE19=The Friend that makes it four
TTITLE20=Mom and Dad's Waltz
TTITLE21=Daddy and home
TTITLE22=I'm going home
TTITLE23=Buckaroo
TTITLE24=Little Terry
TTITLE25=Please don't make me go
EXTD=
EXTT0=
EXTT1=
EXTT2=
EXTT3=
EXTT4=
EXTT5=
EXTT6=
EXTT7=
EXTT8=
EXTT9=
EXTT10=
EXTT11=
EXTT12=
EXTT13=
EXTT14=
EXTT15=
EXTT16=
EXTT17=
EXTT18=
EXTT19=
EXTT20=
EXTT21=
EXTT22=
EXTT23=
EXTT24=
EXTT25=
PLAYORDER=
